{"glyphs":{"0":{"ha":1017,"x_min":34,"x_max":983,"o":"m 509 0 q 173 139 312 0 q 34 475 34 278 q 173 810 34 671 q 509 949 312 949 q 844 810 705 949 q 983 475 983 671 q 844 139 983 278 q 509 0 705 0 m 509 271 q 652 331 593 271 q 712 475 712 391 q 652 618 712 559 q 509 678 593 678 q 365 618 425 678 q 305 475 305 559 q 365 331 305 391 q 509 271 425 271 z "},"1":{"ha":407,"x_min":34,"x_max":373,"o":"m 373 949 l 373 0 l 102 0 l 102 678 l 34 678 l 102 949 l 373 949 z "},"2":{"ha":882,"x_min":34,"x_max":848,"o":"m 441 949 q 848 638 848 949 q 441 339 848 339 q 305 311 305 339 l 305 271 l 848 271 l 848 0 l 34 0 l 34 311 q 441 610 34 610 l 509 610 q 576 638 576 610 q 509 678 576 678 l 102 678 l 102 949 l 441 949 z "},"3":{"ha":882,"x_min":34,"x_max":848,"o":"m 305 339 l 305 610 l 509 610 q 576 644 576 610 q 509 678 576 678 l 34 678 l 34 949 l 509 949 q 848 644 848 949 q 780 475 848 534 q 848 305 848 416 q 509 0 848 0 l 34 0 l 34 271 l 509 271 q 576 305 576 271 q 509 339 576 339 l 305 339 z "},"4":{"ha":1017,"x_min":34,"x_max":983,"o":"m 848 339 l 848 0 l 576 0 l 576 339 l 34 339 l 237 949 l 509 949 l 401 610 l 576 610 l 576 949 l 848 949 l 848 610 l 983 610 l 983 339 l 848 339 z "},"5":{"ha":882,"x_min":34,"x_max":848,"o":"m 102 0 l 102 271 l 509 271 q 576 305 576 271 q 509 339 576 339 l 34 339 l 34 949 l 780 949 l 780 678 l 305 678 l 305 610 l 576 610 q 848 311 848 610 q 576 0 848 0 l 102 0 z "},"6":{"ha":882,"x_min":34,"x_max":848,"o":"m 373 678 q 305 610 305 678 l 509 610 q 848 305 848 610 q 509 0 848 0 l 373 0 q 34 305 34 0 l 34 644 q 373 949 34 949 l 780 949 l 780 678 l 373 678 m 509 271 q 576 305 576 271 q 509 339 576 339 l 373 339 q 305 305 305 339 q 373 271 305 271 l 509 271 z "},"7":{"ha":882,"x_min":34,"x_max":848,"o":"m 475 0 l 170 0 l 441 678 l 34 678 l 34 949 l 848 949 l 475 0 z "},"8":{"ha":882,"x_min":34,"x_max":848,"o":"m 509 610 q 576 644 576 610 q 509 678 576 678 l 373 678 q 305 644 305 678 q 373 610 305 610 l 509 610 m 509 949 q 848 644 848 949 q 780 475 848 534 q 848 305 848 416 q 509 0 848 0 l 373 0 q 34 305 34 0 q 102 475 34 416 q 34 644 34 534 q 373 949 34 949 l 509 949 m 509 271 q 576 305 576 271 l 576 307 q 511 339 576 339 l 375 339 q 305 305 307 339 q 373 271 305 271 l 509 271 z "},"9":{"ha":882,"x_min":34,"x_max":848,"o":"m 509 271 q 576 339 576 271 l 373 339 q 34 644 34 339 q 373 949 34 949 l 509 949 q 848 644 848 949 l 848 305 q 509 0 848 0 l 102 0 l 102 271 l 509 271 m 373 678 q 305 644 305 678 q 373 610 305 610 l 509 610 q 576 644 576 610 q 509 678 576 678 l 373 678 z "},"\u0000":{"ha":0,"x_min":0,"x_max":0,"o":""}," ":{"ha":543,"x_min":0,"x_max":0,"o":""},"!":{"ha":339,"x_min":34,"x_max":305,"o":"m 34 339 l 34 949 l 305 949 l 305 339 l 34 339 m 170 0 q 74 40 113 0 q 34 136 34 79 q 74 232 34 192 q 170 271 113 271 q 266 232 226 271 q 305 136 305 192 q 266 40 305 79 q 170 0 226 0 z "},"\"":{"ha":678,"x_min":34,"x_max":644,"o":"m 305 949 l 305 543 l 34 543 l 34 949 l 305 949 m 644 949 l 644 543 l 373 543 l 373 949 l 644 949 z "},"#":{"ha":1017,"x_min":34,"x_max":983,"o":"m 102 407 l 102 543 l 34 543 l 34 814 l 102 814 l 102 949 l 373 949 l 373 814 l 644 814 l 644 949 l 916 949 l 916 814 l 983 814 l 983 543 l 916 543 l 916 407 l 983 407 l 983 136 l 916 136 l 916 0 l 644 0 l 644 136 l 373 136 l 373 0 l 102 0 l 102 136 l 34 136 l 34 407 l 102 407 m 373 543 l 373 407 l 644 407 l 644 543 l 373 543 z "},"$":{"ha":916,"x_min":0,"x_max":916,"o":"m 339 949 l 339 1085 l 610 1085 l 610 949 l 916 949 l 644 678 l 373 678 q 305 647 305 678 q 373 610 305 610 l 576 610 q 916 308 916 610 q 610 1 916 16 l 610 -136 l 339 -136 l 339 0 l 0 0 l 271 271 l 576 271 q 644 308 644 271 q 576 339 644 339 l 373 339 q 34 647 34 339 q 339 949 34 934 z "},"%":{"ha":949,"x_min":34,"x_max":916,"o":"m 916 949 l 340 0 l 34 0 l 612 949 l 916 949 m 170 610 q 74 650 113 610 q 34 746 34 690 q 74 842 34 802 q 170 882 113 882 q 266 842 226 882 q 305 746 305 802 q 266 650 305 690 q 170 610 226 610 m 780 68 q 684 107 724 68 q 644 203 644 147 q 684 299 644 260 q 780 339 724 339 q 876 299 836 339 q 916 203 916 260 q 876 107 916 147 q 780 68 836 68 z "},"&":{"ha":746,"x_min":34,"x_max":712,"o":"m 509 610 l 712 610 l 712 339 l 509 339 l 509 136 l 237 136 l 237 339 l 34 339 l 34 610 l 237 610 l 237 814 l 509 814 l 509 610 z "},"'":{"ha":339,"x_min":34,"x_max":305,"o":"m 305 949 l 305 543 l 34 543 l 34 949 l 305 949 z "},"(":{"ha":543,"x_min":34,"x_max":509,"o":"m 34 610 q 509 1085 34 1085 l 509 814 q 305 610 305 814 l 305 339 q 509 136 305 136 l 509 -136 q 34 339 34 -136 l 34 610 z "},")":{"ha":543,"x_min":34,"x_max":509,"o":"m 509 339 q 34 -136 509 -136 l 34 136 q 237 339 237 136 l 237 610 q 34 814 237 814 l 34 1085 q 509 610 509 1085 l 509 339 z "},"*":{"ha":746,"x_min":34,"x_max":712,"o":"m 441 775 l 564 899 l 660 804 l 536 678 l 712 678 l 712 543 l 536 543 l 660 417 l 564 321 l 441 446 l 441 271 l 305 271 l 305 446 l 182 321 l 86 417 l 210 543 l 34 543 l 34 678 l 210 678 l 86 804 l 182 899 l 305 775 l 305 949 l 441 949 l 441 775 z "},"+":{"ha":746,"x_min":34,"x_max":712,"o":"m 509 610 l 712 610 l 712 339 l 509 339 l 509 136 l 237 136 l 237 339 l 34 339 l 34 610 l 237 610 l 237 814 l 509 814 l 509 610 z "},",":{"ha":475,"x_min":34,"x_max":441,"o":"m 441 136 l 305 -203 l 34 -203 l 170 136 l 441 136 z "},"-":{"ha":610,"x_min":34,"x_max":576,"o":"m 576 610 l 576 339 l 34 339 l 34 610 l 576 610 z "},".":{"ha":339,"x_min":34,"x_max":305,"o":"m 170 0 q 74 40 113 0 q 34 136 34 79 q 74 232 34 192 q 170 271 113 271 q 266 232 226 271 q 305 136 305 192 q 266 40 305 79 q 170 0 226 0 z "},"/":{"ha":960,"x_min":34,"x_max":926,"o":"m 926 1085 l 317 -136 l 34 -136 l 650 1085 l 926 1085 z "},":":{"ha":339,"x_min":34,"x_max":305,"o":"m 170 136 q 74 175 113 136 q 34 271 34 215 q 74 367 34 328 q 170 407 113 407 q 266 367 226 407 q 305 271 305 328 q 266 175 305 215 q 170 136 226 136 m 170 543 q 74 582 113 543 q 34 678 34 622 q 74 774 34 734 q 170 814 113 814 q 266 774 226 814 q 305 678 305 734 q 266 582 305 622 q 170 543 226 543 z "},";":{"ha":475,"x_min":34,"x_max":441,"o":"m 441 814 l 441 543 l 170 543 l 170 814 l 441 814 m 441 271 l 305 -68 l 34 -68 l 170 271 l 441 271 z "},"<":{"ha":814,"x_min":34,"x_max":780,"o":"m 34 610 l 780 949 l 780 678 l 305 475 l 780 271 l 780 0 l 34 339 l 34 610 z "},"=":{"ha":746,"x_min":34,"x_max":712,"o":"m 712 814 l 712 543 l 34 543 l 34 814 l 712 814 m 712 407 l 712 136 l 34 136 l 34 407 l 712 407 z "},">":{"ha":814,"x_min":34,"x_max":780,"o":"m 780 339 l 34 0 l 34 271 l 509 475 l 34 678 l 34 949 l 780 610 l 780 339 z "},"?":{"ha":949,"x_min":34,"x_max":916,"o":"m 441 0 q 345 40 385 0 q 305 136 305 79 q 345 232 305 192 q 441 271 385 271 q 537 232 497 271 q 576 136 576 192 q 537 40 576 79 q 441 0 497 0 m 305 610 l 509 610 q 576 638 576 610 q 509 678 576 678 l 34 678 l 34 949 l 509 949 q 916 638 916 949 q 576 409 916 427 l 576 339 l 305 339 l 305 610 z "},"@":{"ha":1024,"x_min":34,"x_max":990,"o":"m 522 288 q 386 243 469 243 q 273 288 309 243 q 247 365 247 319 q 252 409 247 385 q 379 625 277 531 q 600 719 481 719 q 767 667 661 719 q 678 469 691 507 q 659 404 665 431 q 657 388 657 395 q 666 374 657 374 q 762 437 715 374 q 826 587 808 500 q 838 663 838 629 q 803 757 838 722 q 648 813 747 813 q 362 694 490 813 q 197 395 235 576 q 189 323 189 357 q 224 206 189 254 q 384 135 276 135 q 501 155 441 135 q 614 222 562 174 l 677 111 q 512 28 604 57 q 342 0 421 0 q 92 106 175 0 q 34 286 34 180 q 45 382 34 331 q 278 786 96 624 q 689 948 460 948 q 934 857 854 948 q 990 695 990 792 q 980 607 990 654 q 852 358 950 467 q 631 250 753 250 q 522 288 548 250 m 571 601 q 475 543 524 601 q 411 416 426 484 q 409 397 409 406 q 432 372 409 372 q 493 399 464 372 q 542 473 522 426 q 590 595 561 519 q 571 601 585 601 z "},"A":{"ha":1017,"x_min":34,"x_max":983,"o":"m 328 68 l 305 0 l 34 0 l 373 949 l 644 949 l 983 0 l 712 0 l 690 68 l 328 68 m 599 339 l 509 610 l 418 339 l 599 339 z "},"B":{"ha":882,"x_min":34,"x_max":848,"o":"m 305 678 l 305 543 l 509 543 q 576 610 576 543 q 509 678 576 678 l 305 678 m 305 339 l 305 203 l 509 203 q 576 271 576 203 q 509 339 576 339 l 305 339 m 34 0 l 34 949 l 509 949 q 848 610 848 949 q 780 441 848 500 q 848 271 848 382 q 509 0 848 0 l 34 0 z "},"C":{"ha":848,"x_min":34,"x_max":814,"o":"m 509 949 l 814 949 l 814 678 l 509 678 q 365 618 425 678 q 305 475 305 559 q 365 331 305 391 q 509 271 425 271 l 814 271 l 814 0 l 509 0 q 173 139 312 0 q 34 475 34 278 q 173 810 34 671 q 509 949 312 949 z "},"D":{"ha":949,"x_min":34,"x_max":916,"o":"m 34 0 l 34 949 l 509 949 q 916 475 916 949 q 509 0 916 0 l 34 0 m 305 678 l 305 271 l 509 271 q 644 475 644 271 q 509 678 644 678 l 305 678 z "},"E":{"ha":814,"x_min":34,"x_max":780,"o":"m 780 949 l 780 678 l 305 678 l 305 610 l 780 610 l 780 339 l 305 339 l 305 271 l 780 271 l 780 0 l 34 0 l 34 949 l 780 949 z "},"F":{"ha":746,"x_min":34,"x_max":712,"o":"m 712 949 l 712 678 l 305 678 l 305 610 l 712 610 l 712 339 l 305 339 l 305 0 l 34 0 l 34 949 l 712 949 z "},"G":{"ha":1017,"x_min":34,"x_max":983,"o":"m 509 678 q 365 618 425 678 q 305 475 305 559 q 365 331 305 391 q 509 271 425 271 q 652 331 593 271 q 660 339 656 335 l 576 339 l 576 610 l 983 610 l 983 0 l 712 0 l 712 44 q 509 0 620 0 q 173 139 312 0 q 34 475 34 278 q 173 810 34 671 q 509 949 312 949 l 814 949 l 814 678 l 509 678 z "},"H":{"ha":949,"x_min":34,"x_max":916,"o":"m 34 949 l 305 949 l 305 610 l 644 610 l 644 949 l 916 949 l 916 0 l 644 0 l 644 339 l 305 339 l 305 0 l 34 0 l 34 949 z "},"I":{"ha":339,"x_min":34,"x_max":305,"o":"m 305 949 l 305 0 l 34 0 l 34 949 l 305 949 z "},"J":{"ha":541,"x_min":34,"x_max":507,"o":"m 100 271 q 235 475 235 271 l 235 949 l 507 949 l 507 475 q 100 0 507 0 l 34 0 l 34 271 l 100 271 z "},"K":{"ha":949,"x_min":34,"x_max":916,"o":"m 305 426 l 305 0 l 34 0 l 34 949 l 305 949 l 305 521 l 610 949 l 916 949 l 576 473 l 916 0 l 610 0 l 305 426 z "},"L":{"ha":610,"x_min":34,"x_max":576,"o":"m 305 271 l 576 271 l 576 0 l 34 0 l 34 949 l 305 949 l 305 271 z "},"M":{"ha":1153,"x_min":34,"x_max":1119,"o":"m 1119 949 l 1119 0 l 848 0 l 848 452 l 712 0 l 441 0 l 305 450 l 305 0 l 34 0 l 34 949 l 373 949 l 576 407 l 780 949 l 1119 949 z "},"N":{"ha":949,"x_min":34,"x_max":916,"o":"m 305 475 l 305 0 l 34 0 l 34 949 l 305 949 l 644 475 l 644 949 l 916 949 l 916 0 l 644 0 l 305 475 z "},"O":{"ha":1017,"x_min":34,"x_max":983,"o":"m 509 0 q 173 139 312 0 q 34 475 34 278 q 173 810 34 671 q 509 949 312 949 q 844 810 705 949 q 983 475 983 671 q 844 139 983 278 q 509 0 705 0 m 509 271 q 652 331 593 271 q 712 475 712 391 q 652 618 712 559 q 509 678 593 678 q 365 618 425 678 q 305 475 305 559 q 365 331 305 391 q 509 271 425 271 z "},"P":{"ha":882,"x_min":34,"x_max":848,"o":"m 305 678 l 305 543 l 509 543 q 576 610 576 543 q 509 678 576 678 l 305 678 m 305 271 l 305 0 l 34 0 l 34 949 l 509 949 q 848 610 848 949 q 509 271 848 271 l 305 271 z "},"Q":{"ha":1085,"x_min":34,"x_max":1051,"o":"m 652 331 q 682 361 652 331 q 712 475 712 391 q 652 618 712 559 q 509 678 593 678 q 365 618 425 678 q 305 475 305 559 q 365 331 305 391 q 509 271 425 271 q 652 331 593 271 m 509 0 q 173 139 312 0 q 34 475 34 278 q 173 810 34 671 q 509 949 312 949 q 844 810 705 949 q 983 475 983 671 q 939 271 983 363 l 1051 271 l 1051 0 l 509 0 z "},"R":{"ha":916,"x_min":34,"x_max":916,"o":"m 305 678 l 305 543 l 509 543 q 576 610 576 543 q 509 678 576 678 l 305 678 m 416 271 l 305 271 l 305 0 l 34 0 l 34 949 l 509 949 q 848 610 848 949 q 695 308 848 382 l 916 0 l 610 0 l 416 271 z "},"S":{"ha":916,"x_min":0,"x_max":916,"o":"m 373 339 q 34 647 34 339 q 373 949 34 949 l 916 949 l 644 678 l 373 678 q 305 647 305 678 q 373 610 305 610 l 576 610 q 916 308 916 610 q 576 0 916 0 l 0 0 l 271 271 l 576 271 q 644 308 644 271 q 576 339 644 339 l 373 339 z "},"T":{"ha":882,"x_min":34,"x_max":848,"o":"m 576 0 l 305 0 l 305 678 l 34 678 l 34 949 l 848 949 l 848 678 l 576 678 l 576 0 z "},"U":{"ha":882,"x_min":34,"x_max":848,"o":"m 34 475 l 34 949 l 305 949 l 305 475 q 441 271 305 271 q 576 475 576 271 l 576 949 l 848 949 l 848 475 q 441 0 848 0 q 34 475 34 0 z "},"V":{"ha":1017,"x_min":34,"x_max":983,"o":"m 373 0 l 34 949 l 305 949 l 509 407 l 712 949 l 983 949 l 644 0 l 373 0 z "},"W":{"ha":1424,"x_min":34,"x_max":1390,"o":"m 712 190 l 644 0 l 373 0 l 34 949 l 305 949 l 509 407 l 573 578 l 441 949 l 712 949 l 916 407 l 1119 949 l 1390 949 l 1051 0 l 780 0 l 712 190 z "},"X":{"ha":1017,"x_min":34,"x_max":983,"o":"m 357 475 l 34 949 l 341 949 l 507 703 l 675 949 l 983 949 l 665 473 l 983 0 l 682 0 l 505 245 l 344 0 l 34 0 l 357 475 z "},"Y":{"ha":1017,"x_min":34,"x_max":983,"o":"m 373 448 l 357 475 l 34 949 l 341 949 l 507 703 l 675 949 l 983 949 l 665 473 l 644 442 l 644 0 l 373 0 l 373 448 z "},"Z":{"ha":882,"x_min":34,"x_max":848,"o":"m 848 949 l 848 678 l 391 271 l 848 271 l 848 0 l 34 0 l 34 271 l 490 678 l 34 678 l 34 949 l 848 949 z "},"[":{"ha":543,"x_min":34,"x_max":509,"o":"m 509 1085 l 509 814 l 305 814 l 305 136 l 509 136 l 509 -136 l 34 -136 l 34 1085 l 509 1085 z "},"\\":{"ha":960,"x_min":34,"x_max":926,"o":"m 309 1085 l 926 -136 l 642 -136 l 34 1085 l 309 1085 z "},"]":{"ha":543,"x_min":34,"x_max":509,"o":"m 509 1085 l 509 -136 l 34 -136 l 34 136 l 237 136 l 237 814 l 34 814 l 34 1085 l 509 1085 z "},"^":{"ha":746,"x_min":34,"x_max":712,"o":"m 576 949 l 712 610 l 441 610 l 373 780 l 305 610 l 34 610 l 170 949 l 576 949 z "},"_":{"ha":882,"x_min":34,"x_max":848,"o":"m 848 271 l 848 0 l 34 0 l 34 271 l 848 271 z "},"`":{"ha":475,"x_min":34,"x_max":441,"o":"m 34 1356 l 305 1356 l 441 1017 l 170 1017 l 34 1356 z "},"a":{"ha":1017,"x_min":34,"x_max":983,"o":"m 328 68 l 305 0 l 34 0 l 373 949 l 644 949 l 983 0 l 712 0 l 690 68 l 328 68 m 599 339 l 509 610 l 418 339 l 599 339 z "},"b":{"ha":882,"x_min":34,"x_max":848,"o":"m 305 678 l 305 543 l 509 543 q 576 610 576 543 q 509 678 576 678 l 305 678 m 305 339 l 305 203 l 509 203 q 576 271 576 203 q 509 339 576 339 l 305 339 m 34 0 l 34 949 l 509 949 q 848 610 848 949 q 780 441 848 500 q 848 271 848 382 q 509 0 848 0 l 34 0 z "},"c":{"ha":848,"x_min":34,"x_max":814,"o":"m 509 949 l 814 949 l 814 678 l 509 678 q 365 618 425 678 q 305 475 305 559 q 365 331 305 391 q 509 271 425 271 l 814 271 l 814 0 l 509 0 q 173 139 312 0 q 34 475 34 278 q 173 810 34 671 q 509 949 312 949 z "},"d":{"ha":949,"x_min":34,"x_max":916,"o":"m 34 0 l 34 949 l 509 949 q 916 475 916 949 q 509 0 916 0 l 34 0 m 305 678 l 305 271 l 509 271 q 644 475 644 271 q 509 678 644 678 l 305 678 z "},"e":{"ha":814,"x_min":34,"x_max":780,"o":"m 780 949 l 780 678 l 34 678 l 34 949 l 780 949 m 780 610 l 780 339 l 34 339 l 34 610 l 780 610 m 780 271 l 780 0 l 34 0 l 34 271 l 780 271 z "},"f":{"ha":746,"x_min":34,"x_max":712,"o":"m 712 949 l 712 678 l 305 678 l 305 610 l 712 610 l 712 339 l 305 339 l 305 0 l 34 0 l 34 949 l 712 949 z "},"g":{"ha":1017,"x_min":34,"x_max":983,"o":"m 509 678 q 365 618 425 678 q 305 475 305 559 q 365 331 305 391 q 509 271 425 271 q 652 331 593 271 q 660 339 656 335 l 576 339 l 576 610 l 983 610 l 983 0 l 712 0 l 712 44 q 509 0 620 0 q 173 139 312 0 q 34 475 34 278 q 173 810 34 671 q 509 949 312 949 l 814 949 l 814 678 l 509 678 z "},"h":{"ha":949,"x_min":34,"x_max":916,"o":"m 34 949 l 305 949 l 305 610 l 644 610 l 644 949 l 916 949 l 916 0 l 644 0 l 644 339 l 305 339 l 305 0 l 34 0 l 34 949 z "},"i":{"ha":339,"x_min":34,"x_max":305,"o":"m 305 949 l 305 0 l 34 0 l 34 949 l 305 949 z "},"j":{"ha":541,"x_min":34,"x_max":507,"o":"m 100 271 q 235 475 235 271 l 235 949 l 507 949 l 507 475 q 100 0 507 0 l 34 0 l 34 271 l 100 271 z "},"k":{"ha":949,"x_min":34,"x_max":916,"o":"m 305 426 l 305 0 l 34 0 l 34 949 l 305 949 l 305 521 l 610 949 l 916 949 l 576 473 l 916 0 l 610 0 l 305 426 z "},"l":{"ha":610,"x_min":34,"x_max":576,"o":"m 305 271 l 576 271 l 576 0 l 34 0 l 34 949 l 305 949 l 305 271 z "},"m":{"ha":1153,"x_min":34,"x_max":1119,"o":"m 1119 949 l 1119 0 l 848 0 l 848 452 l 712 0 l 441 0 l 305 450 l 305 0 l 34 0 l 34 949 l 373 949 l 576 407 l 780 949 l 1119 949 z "},"n":{"ha":949,"x_min":34,"x_max":916,"o":"m 305 475 l 305 0 l 34 0 l 34 949 l 305 949 l 644 475 l 644 949 l 916 949 l 916 0 l 644 0 l 305 475 z "},"o":{"ha":1017,"x_min":34,"x_max":983,"o":"m 509 0 q 173 139 312 0 q 34 475 34 278 q 173 810 34 671 q 509 949 312 949 q 844 810 705 949 q 983 475 983 671 q 844 139 983 278 q 509 0 705 0 m 509 271 q 652 331 593 271 q 712 475 712 391 q 652 618 712 559 q 509 678 593 678 q 365 618 425 678 q 305 475 305 559 q 365 331 305 391 q 509 271 425 271 z "},"p":{"ha":882,"x_min":34,"x_max":848,"o":"m 305 678 l 305 543 l 509 543 q 576 610 576 543 q 509 678 576 678 l 305 678 m 305 271 l 305 0 l 34 0 l 34 949 l 509 949 q 848 610 848 949 q 509 271 848 271 l 305 271 z "},"q":{"ha":1085,"x_min":34,"x_max":1051,"o":"m 652 331 q 682 361 652 331 q 712 475 712 391 q 652 618 712 559 q 509 678 593 678 q 365 618 425 678 q 305 475 305 559 q 365 331 305 391 q 509 271 425 271 q 652 331 593 271 m 509 0 q 173 139 312 0 q 34 475 34 278 q 173 810 34 671 q 509 949 312 949 q 844 810 705 949 q 983 475 983 671 q 939 271 983 363 l 1051 271 l 1051 0 l 509 0 z "},"r":{"ha":916,"x_min":34,"x_max":916,"o":"m 305 678 l 305 543 l 509 543 q 576 610 576 543 q 509 678 576 678 l 305 678 m 416 271 l 305 271 l 305 0 l 34 0 l 34 949 l 509 949 q 848 610 848 949 q 695 308 848 382 l 916 0 l 610 0 l 416 271 z "},"s":{"ha":916,"x_min":0,"x_max":916,"o":"m 373 339 q 34 647 34 339 q 373 949 34 949 l 916 949 l 644 678 l 373 678 q 305 647 305 678 q 373 610 305 610 l 576 610 q 916 308 916 610 q 576 0 916 0 l 0 0 l 271 271 l 576 271 q 644 308 644 271 q 576 339 644 339 l 373 339 z "},"t":{"ha":882,"x_min":34,"x_max":848,"o":"m 576 0 l 305 0 l 305 678 l 34 678 l 34 949 l 848 949 l 848 678 l 576 678 l 576 0 z "},"u":{"ha":882,"x_min":34,"x_max":848,"o":"m 34 475 l 34 949 l 305 949 l 305 475 q 441 271 305 271 q 576 475 576 271 l 576 949 l 848 949 l 848 475 q 441 0 848 0 q 34 475 34 0 z "},"v":{"ha":1017,"x_min":34,"x_max":983,"o":"m 373 0 l 34 949 l 305 949 l 509 407 l 712 949 l 983 949 l 644 0 l 373 0 z "},"w":{"ha":1424,"x_min":34,"x_max":1390,"o":"m 712 190 l 644 0 l 373 0 l 34 949 l 305 949 l 509 407 l 573 578 l 441 949 l 712 949 l 916 407 l 1119 949 l 1390 949 l 1051 0 l 780 0 l 712 190 z "},"x":{"ha":1017,"x_min":34,"x_max":983,"o":"m 357 475 l 34 949 l 341 949 l 507 703 l 675 949 l 983 949 l 665 473 l 983 0 l 682 0 l 505 245 l 344 0 l 34 0 l 357 475 z "},"y":{"ha":1017,"x_min":34,"x_max":983,"o":"m 373 448 l 357 475 l 34 949 l 341 949 l 507 703 l 675 949 l 983 949 l 665 473 l 644 442 l 644 0 l 373 0 l 373 448 z "},"z":{"ha":882,"x_min":34,"x_max":848,"o":"m 848 949 l 848 678 l 391 271 l 848 271 l 848 0 l 34 0 l 34 271 l 490 678 l 34 678 l 34 949 l 848 949 z "},"{":{"ha":678,"x_min":34,"x_max":644,"o":"m 170 610 q 644 1085 170 1085 l 644 814 q 441 610 441 814 l 441 339 q 644 136 441 136 l 644 -136 q 170 339 170 -136 l 34 339 l 34 610 l 170 610 z "},"|":{"ha":339,"x_min":34,"x_max":305,"o":"m 305 1085 l 305 -136 l 34 -136 l 34 1085 l 305 1085 z "},"}":{"ha":678,"x_min":34,"x_max":644,"o":"m 509 339 q 34 -136 509 -136 l 34 136 q 237 339 237 136 l 237 610 q 34 814 237 814 l 34 1085 q 509 610 509 1085 l 644 610 l 644 339 l 509 339 z "},"~":{"ha":746,"x_min":34,"x_max":712,"o":"m 34 294 l 34 565 q 220 599 136 599 q 373 565 305 599 q 471 543 418 543 q 712 633 576 543 l 712 361 q 471 271 576 271 q 373 294 418 271 q 220 328 305 328 q 34 294 136 328 z "},"¡":{"ha":339,"x_min":34,"x_max":305,"o":"m 305 610 l 305 0 l 34 0 l 34 610 l 305 610 m 170 949 q 266 910 226 949 q 305 814 305 870 q 266 718 305 758 q 170 678 226 678 q 74 718 113 678 q 34 814 34 758 q 74 910 34 870 q 170 949 113 949 z "},"£":{"ha":882,"x_min":34,"x_max":848,"o":"m 622 610 l 621 610 q 509 678 587 678 q 397 610 431 678 l 576 610 l 576 339 l 373 339 l 373 270 l 848 270 l 848 0 l 102 0 l 102 339 l 34 339 l 34 610 l 111 610 q 509 949 165 949 q 810 836 707 949 l 678 678 l 622 610 z "},"¥":{"ha":1017,"x_min":34,"x_max":983,"o":"m 644 136 l 644 0 l 373 0 l 373 136 l 170 136 l 170 407 l 373 407 l 34 949 l 323 949 l 509 678 l 694 949 l 983 949 l 644 407 l 848 407 l 848 136 l 644 136 z "},"¨":{"ha":678,"x_min":34,"x_max":644,"o":"m 170 1017 q 74 1057 113 1017 q 34 1153 34 1097 q 74 1249 34 1209 q 170 1289 113 1289 q 266 1249 226 1289 q 305 1153 305 1209 q 266 1057 305 1097 q 170 1017 226 1017 m 509 1017 q 413 1057 452 1017 q 373 1153 373 1097 q 413 1249 373 1209 q 509 1289 452 1289 q 605 1249 565 1289 q 644 1153 644 1209 q 605 1057 644 1097 q 509 1017 565 1017 z "},"°":{"ha":339,"x_min":34,"x_max":305,"o":"m 170 1017 q 74 1060 113 1017 q 34 1162 34 1103 q 74 1265 34 1223 q 170 1308 113 1308 q 266 1265 226 1308 q 305 1162 305 1223 q 266 1060 305 1103 q 170 1017 226 1017 z "},"´":{"ha":475,"x_min":34,"x_max":441,"o":"m 305 1017 l 34 1017 l 170 1356 l 441 1356 l 305 1017 z "},"×":{"ha":826,"x_min":34,"x_max":792,"o":"m 405 245 l 341 136 l 34 136 l 257 475 l 35 814 l 341 814 l 407 703 l 482 813 l 792 814 l 565 473 l 792 136 l 477 136 l 405 245 z "},"÷":{"ha":746,"x_min":34,"x_max":712,"o":"m 712 610 l 712 339 l 34 339 l 34 610 l 712 610 m 373 678 q 277 718 317 678 q 237 814 237 758 q 277 910 237 870 q 373 949 317 949 q 469 910 429 949 q 509 814 509 870 q 469 718 509 758 q 373 678 429 678 m 373 0 q 277 40 317 0 q 237 136 237 79 q 277 232 237 192 q 373 271 317 271 q 469 232 429 271 q 509 136 509 192 q 469 40 509 79 q 373 0 429 0 z "},"ˆ":{"ha":746,"x_min":34,"x_max":712,"o":"m 576 1356 l 712 1017 l 441 1017 l 373 1187 l 305 1017 l 34 1017 l 170 1356 l 576 1356 z "},"ˇ":{"ha":746,"x_min":34,"x_max":712,"o":"m 373 1187 l 441 1356 l 712 1356 l 576 1017 l 170 1017 l 34 1356 l 305 1356 l 373 1187 z "},"ˉ":{"ha":610,"x_min":34,"x_max":576,"o":"m 576 1289 l 576 1017 l 34 1017 l 34 1289 l 576 1289 z "},"˙":{"ha":339,"x_min":34,"x_max":305,"o":"m 170 1017 q 74 1060 113 1017 q 34 1162 34 1103 q 74 1265 34 1223 q 170 1308 113 1308 q 266 1265 226 1308 q 305 1162 305 1223 q 266 1060 305 1103 q 170 1017 226 1017 z "},"˜":{"ha":746,"x_min":34,"x_max":712,"o":"m 34 1040 l 34 1311 q 220 1345 136 1345 q 373 1311 305 1345 q 471 1289 418 1289 q 712 1379 576 1289 l 712 1107 q 471 1017 576 1017 q 373 1040 418 1017 q 220 1074 305 1074 q 34 1040 136 1074 z "},"˝":{"ha":845,"x_min":34,"x_max":811,"o":"m 305 610 l 34 610 l 170 949 l 441 949 l 305 610 m 675 610 l 404 610 l 540 949 l 811 949 l 675 610 z "},"–":{"ha":746,"x_min":34,"x_max":712,"o":"m 712 610 l 712 339 l 34 339 l 34 610 l 712 610 z "},"—":{"ha":1356,"x_min":34,"x_max":1322,"o":"m 1322 610 l 1322 339 l 34 339 l 34 610 l 1322 610 z "},"‘":{"ha":339,"x_min":34,"x_max":305,"o":"m 305 949 l 305 543 l 34 543 l 34 949 l 305 949 z "},"’":{"ha":339,"x_min":34,"x_max":305,"o":"m 305 949 l 305 543 l 34 543 l 34 949 l 305 949 z "},"‚":{"ha":339,"x_min":34,"x_max":305,"o":"m 305 136 l 305 -271 l 34 -271 l 34 136 l 305 136 z "},"“":{"ha":678,"x_min":34,"x_max":644,"o":"m 305 949 l 305 543 l 34 543 l 34 949 l 305 949 m 644 949 l 644 543 l 373 543 l 373 949 l 644 949 z "},"”":{"ha":678,"x_min":34,"x_max":644,"o":"m 305 949 l 305 543 l 34 543 l 34 949 l 305 949 m 644 949 l 644 543 l 373 543 l 373 949 l 644 949 z "},"„":{"ha":678,"x_min":34,"x_max":644,"o":"m 305 136 l 305 -271 l 34 -271 l 34 136 l 305 136 m 644 136 l 644 -271 l 373 -271 l 373 136 l 644 136 z "},"•":{"ha":339,"x_min":34,"x_max":305,"o":"m 170 339 q 74 379 113 339 q 34 475 34 418 q 74 571 34 531 q 170 610 113 610 q 266 571 226 610 q 305 475 305 531 q 266 379 305 418 q 170 339 226 339 z "},"…":{"ha":1153,"x_min":34,"x_max":1119,"o":"m 983 0 q 887 40 927 0 q 848 136 848 79 q 887 232 848 192 q 983 271 927 271 q 1079 232 1040 271 q 1119 136 1119 192 q 1079 40 1119 79 q 983 0 1040 0 m 576 0 q 480 40 520 0 q 441 136 441 79 q 480 232 441 192 q 576 271 520 271 q 672 232 633 271 q 712 136 712 192 q 672 40 712 79 q 576 0 633 0 m 170 0 q 74 40 113 0 q 34 136 34 79 q 74 232 34 192 q 170 271 113 271 q 266 232 226 271 q 305 136 305 192 q 266 40 305 79 q 170 0 226 0 z "},"‹":{"ha":814,"x_min":34,"x_max":780,"o":"m 34 610 l 780 949 l 780 678 l 305 475 l 780 271 l 780 0 l 34 339 l 34 610 z "},"›":{"ha":814,"x_min":34,"x_max":780,"o":"m 780 339 l 34 0 l 34 271 l 509 475 l 34 678 l 34 949 l 780 610 l 780 339 z "},"€":{"ha":1048,"x_min":34,"x_max":1015,"o":"m 425 339 q 433 331 429 335 q 576 271 492 271 q 720 331 661 271 q 764 395 749 359 l 1014 288 q 912 139 979 206 q 576 0 773 0 q 241 139 380 0 q 120 339 153 227 l 34 339 l 34 610 l 120 610 q 241 810 153 722 q 576 949 380 949 q 912 810 773 949 q 1015 663 979 743 l 764 555 q 720 618 749 589 q 576 678 661 678 q 433 618 492 678 q 425 610 429 614 l 576 610 l 576 339 l 425 339 z "},"™":{"ha":796,"x_min":34,"x_max":762,"o":"m 239 853 l 239 610 l 142 610 l 142 853 l 34 853 l 34 950 l 349 950 l 349 853 l 239 853 m 762 950 l 762 610 l 665 610 l 665 772 l 616 610 l 519 610 l 471 772 l 471 610 l 374 610 l 374 950 l 495 950 l 568 756 l 641 950 l 762 950 z "},"−":{"ha":746,"x_min":34,"x_max":712,"o":"m 712 610 l 712 339 l 34 339 l 34 610 l 712 610 z "}}}
